<?xml version="1.0" encoding="utf-8"?>
<svg xmlns="http://www.w3.org/2000/svg"
	xmlns:xlink="http://www.w3.org/1999/xlink"
	width="99px" height="99px" viewBox="0 0 99 99">
<path fillRule="evenodd" d="M 76.41 33.54C 76.41 33.54 64.94 42.19 64.94 42.19 64.94 42.19 64.94 37.72 64.94 37.72 64.94 37.72 61.34 37.72 57.46 37.72 52.72 37.72 49.49 38.82 45.18 45.58 45.18 34.91 50.78 29.37 57.46 29.37 64.14 29.37 64.94 29.37 64.94 29.37 64.94 29.37 64.94 24.89 64.94 24.89 64.94 24.89 76.41 33.54 76.41 33.54ZM 58.84 40.51C 59.38 40.51 60.49 40.51 61.46 40.51 61.46 40.51 48.76 54.09 48.76 54.09 48.76 54.09 44.27 49.22 44.27 49.22 48.89 42.97 53.85 40.51 58.84 40.51ZM 33.72 37.79C 33.72 37.79 43.88 37.79 43.88 37.79 43.32 40.41 42.95 43.65 42.82 47.64 42.82 47.64 33.72 37.79 33.72 37.79ZM 63.27 43.76C 63.27 43.76 63.27 48.33 63.27 48.33 63.27 48.33 68.66 44.07 68.66 44.07 68.66 44.07 68.66 62.42 68.66 62.42 68.66 62.42 59.88 54.6 59.88 54.6 59.88 54.6 57.87 56.1 57.87 56.1 57.87 56.1 67.35 64.56 67.35 64.56 67.35 64.56 30.86 64.56 30.86 64.56 30.86 64.56 40.35 56.1 40.35 56.1 40.35 56.1 38.34 54.6 38.34 54.6 38.34 54.6 28.97 62.94 28.97 62.94 28.97 62.94 28.97 37.8 28.97 37.8 28.97 37.8 48.76 59.11 48.76 59.11 48.76 59.11 63.27 43.76 63.27 43.76Z" fill="rgb(255,155,0)"/><path fillRule="evenodd" d="M 49.5 98.5C 22.44 98.5 0.5 76.56 0.5 49.5 0.5 22.44 22.44 0.5 49.5 0.5 76.56 0.5 98.5 22.44 98.5 49.5 98.5 76.56 76.56 98.5 49.5 98.5ZM 49.5 1.87C 23.2 1.87 1.87 23.2 1.87 49.5 1.87 75.8 23.2 97.13 49.5 97.13 75.8 97.13 97.13 75.8 97.13 49.5 97.13 23.2 75.8 1.87 49.5 1.87Z" fill="rgb(220,220,220)"/></svg>