<?xml version="1.0" encoding="utf-8"?>
<svg xmlns="http://www.w3.org/2000/svg"
	xmlns:xlink="http://www.w3.org/1999/xlink"
	width="99px" height="99px" viewBox="0 0 99 99">
<path fillRule="evenodd" d="M 73.22 41.56C 73.22 41.56 69.84 37.7 69.84 37.7 69.84 37.7 69.03 34.81 71.45 36.9 73.86 38.99 73.05 38.35 74.5 40.28 75.95 42.21 73.22 41.56 73.22 41.56ZM 61.71 56.91C 58.01 60.36 54.72 62.95 54.72 62.95 54.72 62.95 48.61 56.68 48.61 56.68 48.61 56.68 51.58 52.54 55.65 48.44 60.38 43.67 66.3 38.83 66.3 38.83 66.3 38.83 73.54 45.42 73.54 45.42 73.54 45.42 67.09 51.89 61.71 56.91ZM 56.17 44.62C 56.17 44.62 54.4 46.39 54.4 46.39 54.4 46.39 54.4 37.86 54.4 37.86 54.4 37.86 47.32 47.51 47.32 47.51 47.32 47.51 39.76 40.11 39.76 40.11 39.76 40.11 41.37 38.19 41.37 38.19 41.37 38.19 47 43.17 47 43.17 47 43.17 57.13 29.66 57.13 29.66 57.13 29.66 59.22 31.27 59.22 31.27 59.22 31.27 56.17 35.44 56.17 35.44 56.17 35.44 56.17 44.62 56.17 44.62ZM 36.56 33.19C 36.11 33.19 35.75 33.55 35.75 34 35.75 34 35.75 50.89 35.75 50.89 35.75 51.34 36.11 51.7 36.56 51.7 36.56 51.7 49.22 51.7 49.22 51.7 49.22 51.7 48.31 53.46 48.31 53.46 48.31 53.46 34.94 53.46 34.94 53.46 34.41 53.46 33.97 53.03 33.97 52.5 33.97 52.5 33.97 32.4 33.97 32.4 33.97 31.86 34.41 31.43 34.94 31.43 34.94 31.43 51.68 31.43 51.68 31.43 51.68 31.43 50.65 33.19 50.65 33.19 50.65 33.19 36.56 33.19 36.56 33.19ZM 47.16 58.77C 47.16 58.77 52.79 64.88 52.79 64.88 52.79 64.88 49.92 67.64 46.97 69.16 43.82 70.77 40.57 71.15 40.57 71.15 40.57 71.15 41.1 68.03 42.76 64.92 44.4 61.84 47.16 58.77 47.16 58.77ZM 74.02 47.03C 74.02 47.03 75.43 48.77 74.66 49.92 73.38 51.85 67.99 57.56 66.3 58.61 64.95 59.45 62.97 57.87 64.37 56.84 65.75 55.82 74.02 47.03 74.02 47.03Z" fill="rgb(255,155,0)"/><path fillRule="evenodd" d="M 49.5 98.5C 22.44 98.5 0.5 76.56 0.5 49.5 0.5 22.44 22.44 0.5 49.5 0.5 76.56 0.5 98.5 22.44 98.5 49.5 98.5 76.56 76.56 98.5 49.5 98.5ZM 49.5 1.87C 23.2 1.87 1.87 23.2 1.87 49.5 1.87 75.8 23.2 97.13 49.5 97.13 75.8 97.13 97.13 75.8 97.13 49.5 97.13 23.2 75.8 1.87 49.5 1.87Z" fill="rgb(220,220,220)"/></svg>