<?xml version="1.0" encoding="utf-8"?>
<svg xmlns="http://www.w3.org/2000/svg"
	xmlns:xlink="http://www.w3.org/1999/xlink"
	width="23px" height="23px" viewBox="0 0 23 23">
<path fillRule="evenodd" d="M 11.73 22.06C 5.67 22.06 0.75 17.14 0.75 11.08 0.75 5.01 5.67 0.09 11.73 0.09 17.8 0.09 22.71 5.01 22.71 11.08 22.71 17.14 17.8 22.06 11.73 22.06ZM 11.74 1.55C 6.48 1.55 2.22 5.81 2.22 11.07 2.22 16.32 6.48 20.59 11.74 20.59 17 20.59 21.26 16.32 21.26 11.07 21.26 5.81 17 1.55 11.74 1.55ZM 19.89 11.59C 19.6 11.59 19.37 11.35 19.37 11.06 19.37 10.77 19.6 10.53 19.89 10.53 20.18 10.53 20.42 10.77 20.42 11.06 20.42 11.35 20.18 11.59 19.89 11.59ZM 14.72 13.92C 14.57 14.07 14.32 14.07 14.17 13.92 14.17 13.92 13.09 12.96 12.01 11.99 11.96 12 11.92 12.02 11.87 12.02 11.31 12.02 10.86 11.57 10.86 11.02 10.86 10.72 10.99 10.46 11.2 10.28 11.2 10.28 11.45 4.64 11.45 4.64 11.45 4.49 11.57 4.37 11.73 4.37 11.73 4.37 11.77 4.37 11.77 4.37 11.92 4.37 12.05 4.49 12.05 4.64 12.05 4.64 12.28 10.11 12.28 10.11 12.63 10.27 12.87 10.61 12.87 11.02 12.87 11.07 12.85 11.12 12.84 11.17 13.78 12.27 14.76 13.33 14.76 13.33 14.91 13.49 14.91 13.73 14.76 13.88 14.76 13.88 14.72 13.92 14.72 13.92ZM 11.75 3.44C 11.46 3.44 11.22 3.2 11.22 2.91 11.22 2.62 11.46 2.39 11.75 2.39 12.04 2.39 12.27 2.62 12.27 2.91 12.27 3.2 12.04 3.44 11.75 3.44ZM 11.75 18.68C 12.04 18.68 12.27 18.92 12.27 19.21 12.27 19.5 12.04 19.73 11.75 19.73 11.46 19.73 11.22 19.5 11.22 19.21 11.22 18.92 11.46 18.68 11.75 18.68ZM 3.6 11.59C 3.31 11.59 3.07 11.35 3.07 11.06 3.07 10.77 3.31 10.53 3.6 10.53 3.89 10.53 4.13 10.77 4.13 11.06 4.13 11.35 3.89 11.59 3.6 11.59Z" fill="rgb(255,155,0)"/></svg>