<?xml version="1.0" encoding="utf-8"?>
<svg xmlns="http://www.w3.org/2000/svg"
	xmlns:xlink="http://www.w3.org/1999/xlink"
	width="15px" height="18px" viewBox="0 0 15 18">
<path fillRule="evenodd" d="M 9.41 0.26C 9.41 0.26 8.49 6.37 8.49 6.37 8.49 6.37 11.49 6.71 11.49 6.71 11.49 6.71 10.9 8.61 9.76 10.31 8.53 12.13 6.74 13.75 6.74 13.75 6.74 13.75 5.07 11.52 5.07 11.52 5.07 11.52 0.31 15.1 0.31 15.1 0.31 15.1 1.18 15.96 2.19 16.63 3.25 17.32 4.45 17.82 4.45 17.82 4.45 17.82 8.65 17.2 12.2 12.7 14.67 9.56 14.07 4.53 14.07 4.53 14.07 4.53 13.23 3.27 12.03 2.17 10.9 1.14 9.41 0.26 9.41 0.26Z" fill="rgb(255,155,0)"/></svg>