<?xml version="1.0" encoding="utf-8"?>
<svg xmlns="http://www.w3.org/2000/svg"
	xmlns:xlink="http://www.w3.org/1999/xlink"
	width="73px" height="71px" viewBox="0 0 73 71">
<path fillRule="evenodd" d="M 72.72 35.48C 72.72 35.48 61.89 42.06 61.89 42.06 61.89 42.06 68.04 53.13 68.04 53.13 68.04 53.13 55.37 53.42 55.37 53.42 55.37 53.42 55.17 66.08 55.17 66.08 55.17 66.08 44.06 60 44.06 60 44.06 60 38 70.1 38 70.1 38 70.1 38 57.96 38 57.96 49.82 57.58 59.29 47.91 59.29 36 59.29 24.09 49.82 14.42 38 14.04 38 14.04 38 1.4 38 1.4 38 1.4 43.91 11.14 43.91 11.14 43.91 11.14 54.99 4.98 54.99 4.98 54.99 4.98 55.27 17.65 55.27 17.65 55.27 17.65 67.94 17.85 67.94 17.85 67.94 17.85 61.85 28.97 61.85 28.97 61.85 28.97 72.72 35.48 72.72 35.48ZM 30.93 69.97C 29.31 69.97 28 68.66 28 67.04 28 67.04 28 59.93 28 59.93 28 59.93 24.02 62.43 24.02 62.43 22.66 63.3 20.84 62.91 19.97 61.55 19.09 60.19 19.49 58.38 20.85 57.5 20.85 57.5 28 52.91 28 52.91 28 52.91 28 39.97 28 39.97 28 39.97 28 39.14 28 39.14 28 39.14 16.83 46.3 16.83 46.3 16.83 46.3 16.85 55.69 16.85 55.69 16.86 57.31 15.55 58.62 13.93 58.62 12.31 58.63 11 57.32 11 55.7 11 55.7 10.93 50.08 10.93 50.08 10.93 50.08 4.53 54.19 4.53 54.19 3.17 55.06 1.36 54.67 0.48 53.31-0.4 51.96-0.01 50.14 1.35 49.27 1.35 49.27 7.33 45.41 7.33 45.41 7.33 45.41 3.06 43.42 3.06 43.42 1.59 42.75 0.94 41.01 1.61 39.54 2.28 38.07 4.01 37.42 5.48 38.08 5.48 38.08 13.22 41.6 13.22 41.6 13.22 41.6 23.97 34.66 23.97 34.66 23.97 34.66 13.22 27.71 13.22 27.71 13.22 27.71 5.48 31.23 5.48 31.23 4.01 31.9 2.28 31.24 1.61 29.77 0.94 28.3 1.59 26.56 3.06 25.89 3.06 25.89 7.33 23.91 7.33 23.91 7.33 23.91 1.35 20.05 1.35 20.05-0.01 19.17-0.4 17.36 0.48 16 1.36 14.64 3.17 14.25 4.53 15.13 4.53 15.13 10.93 19.23 10.93 19.23 10.93 19.23 11 13.61 11 13.61 11 11.99 12.31 10.68 13.93 10.69 15.55 10.69 16.86 12 16.85 13.62 16.85 13.62 16.83 23.01 16.83 23.01 16.83 23.01 28 30.17 28 30.17 28 30.17 28 30 28 30 28 30 28 17.06 28 17.06 28 17.06 20.85 12.47 20.85 12.47 19.49 11.59 19.09 9.78 19.97 8.42 20.84 7.06 22.66 6.66 24.02 7.54 24.02 7.54 28 10.04 28 10.04 28 10.04 28 2.93 28 2.93 28 1.31 29.31-0 30.93-0 32.55-0 33.86 1.31 33.86 2.93 33.86 2.93 33.86 67.04 33.86 67.04 33.86 68.66 32.55 69.97 30.93 69.97ZM 55.14 36C 55.14 45.62 47.53 53.44 38 53.82 38 53.82 38 18.18 38 18.18 47.53 18.56 55.14 26.38 55.14 36Z" fill="rgb(253,169,63)"/></svg>