<?xml version="1.0" encoding="utf-8"?>
<svg xmlns="http://www.w3.org/2000/svg"
	xmlns:xlink="http://www.w3.org/1999/xlink"
	width="74px" height="62px" viewBox="0 0 74 62">
<path fillRule="evenodd" d="M 71 27C 69 27.86 51.43 31.86 50.43 33 50.32 33.13 50.22 33.25 50.13 33.37 50.03 33.81 49.91 34.22 49.78 34.63 49.9 34.86 50.2 35 50.71 35 52 35 64.71 31.57 66.29 31.14 67.86 30.71 70 32.14 70.57 33.86 71.14 35.57 70.71 37.29 68.43 38 66.14 38.71 42 45.29 40.57 45.71 39.14 46.14 39.86 48.14 41.43 47.71 43 47.29 61 42.29 62.71 41.86 64.43 41.43 66.14 42.29 66.86 44.43 67.57 46.57 66.43 48.14 64.57 48.71 62.71 49.29 24.71 60.43 21 61.14 17.29 61.86 11.72 61.03 8.57 58.29 3.52 53.89 4.71 51.71 3.14 45.71 1.57 39.71 0.71 38 0.29 35.57-0.14 33.14 2.71 27.29 5 24.14 7.29 21 11.14 16.29 13.14 11.71 15.14 7.14 15.57 4.71 15.57 3.29 15.57 1.86 16.57-0 19.14-0 21.71-0 23.86 4.29 23.86 7.86 23.86 13.71 21 20.71 21 20.71 21 20.71 23.56 20.16 27.35 19.35 28.08 18.32 28.7 17.28 29.02 16.15 30.32 11.52 29.85 0.2 29.86 0.14 29.86 0.14 39.85 6.01 45.96 15.39 52.61 13.98 58.19 12.82 59 12.71 61.14 12.43 64 12.43 64.86 14.57 65.71 16.71 64.57 18.86 61.71 19.71 58.86 20.57 51.14 22.29 49.86 22.71 49.73 22.76 49.63 22.82 49.54 22.89 49.73 23.53 49.91 24.17 50.06 24.83 50.17 24.85 50.29 24.87 50.43 24.86 52.14 24.71 67.57 20.43 69.43 20.14 71.29 19.86 72.57 20.57 73 22.43 73.43 24.29 73 26.14 71 27ZM 32.02 4.62C 32.02 4.62 32.18 13.64 31.49 16.3 30.43 20.35 24.32 24.54 24.32 31.49 24.32 41.09 32.43 43.21 32.43 43.21 32.43 43.21 32.54 45.28 32.52 47.63 32.5 50.06 32.25 52.17 35.16 52.17 35.85 52.17 36.05 51.32 36.1 50.25 35.68 48.86 35.19 46.65 35.19 43.75 35.19 38.56 38.5 33.37 38.5 25.69 38.5 20.44 36.5 15.56 36.5 15.56 36.5 15.56 40.25 19.12 40.25 27.44 40.25 33.5 37.69 37 37.69 42.75 37.69 42.9 37.69 43.05 37.7 43.21 40.98 41.86 48.11 37.96 48.11 29.51 48.11 14.84 32.02 4.62 32.02 4.62Z" fill="rgb(253,169,63)"/></svg>