<?xml version="1.0" encoding="utf-8"?>
<svg xmlns="http://www.w3.org/2000/svg"
	xmlns:xlink="http://www.w3.org/1999/xlink"
	width="66px" height="60px" viewBox="0 0 66 60">
<path fillRule="evenodd" d="M 64 36.86C 64 36.86 61.88 36.86 61.88 36.86 61.88 36.86 59 33 59 33 59 31.9 58.1 31 57 31 57 31 9 31 9 31 7.9 31 7 31.9 7 33 7 33 3.98 36.86 3.98 36.86 3.98 36.86 2 36.86 2 36.86 0.9 36.86-0 35.96-0 34.86-0 34.86-0 2-0 2-0 0.9 0.9-0 2-0 2-0 64-0 64-0 65.1-0 66 0.9 66 2 66 2 66 34.86 66 34.86 66 35.96 65.1 36.86 64 36.86ZM 59.53 10C 58.89 8.45 58.1 8 57 8 57 8 9 8 9 8 7.9 8 7.06 8.86 6.48 10 5.9 11.14 4.49 14.08 4.49 14.08 4.49 14.08 61.23 14.04 61.23 14.04 61.23 14.04 60.12 11.43 59.53 10ZM 59.53 22C 58.89 20.45 58.1 20 57 20 57 20 9 20 9 20 7.9 20 7.06 20.86 6.48 22 5.9 23.14 4.49 26.08 4.49 26.08 4.49 26.08 61.23 26.04 61.23 26.04 61.23 26.04 60.12 23.43 59.53 22ZM 7.96 38.97C 7.96 38.97 15.01 38.97 15.01 38.97 15.01 38.97 15.01 47 15.01 47 15.01 47 20.87 47 20.87 47 20.87 47 11.49 59.44 11.49 59.44 11.49 59.44 2.1 47 2.1 47 2.1 47 7.96 47 7.96 47 7.96 47 7.96 38.97 7.96 38.97ZM 29.96 38.97C 29.96 38.97 37.01 38.97 37.01 38.97 37.01 38.97 37.01 47 37.01 47 37.01 47 42.87 47 42.87 47 42.87 47 33.49 59.44 33.49 59.44 33.49 59.44 24.1 47 24.1 47 24.1 47 29.96 47 29.96 47 29.96 47 29.96 38.97 29.96 38.97ZM 51.96 38.97C 51.96 38.97 59.01 38.97 59.01 38.97 59.01 38.97 59.01 47 59.01 47 59.01 47 64.87 47 64.87 47 64.87 47 55.49 59.44 55.49 59.44 55.49 59.44 46.1 47 46.1 47 46.1 47 51.96 47 51.96 47 51.96 47 51.96 38.97 51.96 38.97Z" fill="rgb(253,169,63)"/></svg>