<?xml version="1.0" encoding="utf-8"?>
<svg xmlns="http://www.w3.org/2000/svg"
	xmlns:xlink="http://www.w3.org/1999/xlink"
	width="68px" height="61px" viewBox="0 0 68 61">
<path fillRule="evenodd" d="M 61.19 40.57C 61.19 40.57 61.19 42.59 60.07 44.15 58.95 45.72 57.83 47.07 57.83 47.07 57.83 47.07 61.41 53.79 61.41 53.79 61.41 53.79 49.99 59.84 49.99 59.84 49.99 59.84 45.5 55.58 45.5 55.58 45.5 55.58 42.59 57.82 34.08 57.82 25.57 57.82 21.98 55.35 21.98 55.35 21.98 55.35 18.4 60.51 18.4 60.51 18.4 60.51 7.42 53.56 7.42 53.56 7.42 53.56 8.54 51.1 9.89 50.2 11.23 49.31 10.33 46.39 10.33 46.39 10.33 46.39 8.99 44.83 7.87 42.81 6.75 40.79 7.2 39.67 7.2 39.67 7.2 39.67 2.94 39.23 2.94 39.23 2.94 39.23 0.25 25.11 0.25 25.11 0.25 25.11 9.44 24.44 9.44 24.44 9.44 24.44 10.11 22.42 11.23 21.08 12.35 19.74 14.14 17.72 14.14 17.72 14.14 17.72 13.47 6.52 13.92 5.17 14.37 3.83 18.19 5.77 20.82 7.34 23.77 9.12 25.12 11.89 25.12 11.89 25.12 11.89 32.06 11 35.42 11 58.27 11 62.75 30.26 62.75 30.26 62.75 30.26 67.46 30.94 67.46 35.64 67.46 40.35 61.19 40.57 61.19 40.57ZM 19.18 21.98C 17.02 21.98 15.26 23.73 15.26 25.9 15.26 28.06 17.02 29.82 19.18 29.82 21.35 29.82 23.1 28.06 23.1 25.9 23.1 23.73 21.35 21.98 19.18 21.98ZM 42.37 6.29C 36.54 5.17 33.18 6.29 33.18 6.29 33.18 6.29 33.18-1.32 44.38 0.47 53.27 1.89 50.66 9.65 50.66 9.65 50.66 9.65 48.19 7.41 42.37 6.29Z" fill="rgb(253,169,63)"/></svg>