<?xml version="1.0" encoding="utf-8"?>
<svg xmlns="http://www.w3.org/2000/svg"
	xmlns:xlink="http://www.w3.org/1999/xlink"
	width="69px" height="64px" viewBox="0 0 69 64">
<path fillRule="evenodd" d="M 0.07 63.89C 0.07 63.89 0.07 59 0.07 59 0.07 59 69 59 69 59 69 59 69 63.89 69 63.89 69 63.89 0.07 63.89 0.07 63.89ZM 15.07 10C 15.07 10 20 10 20 10 20 10 20 14.89 20 14.89 20 14.89 15.07 14.89 15.07 14.89 15.07 14.89 15.07 10 15.07 10ZM 15.07 19C 15.07 19 20 19 20 19 20 19 20 23.89 20 23.89 20 23.89 15.07 23.89 15.07 23.89 15.07 23.89 15.07 19 15.07 19ZM 20 41.89C 20 41.89 15.07 41.89 15.07 41.89 15.07 41.89 15.07 37 15.07 37 15.07 37 20 37 20 37 20 37 20 41.89 20 41.89ZM 15.07 28C 15.07 28 20 28 20 28 20 28 20 32.89 20 32.89 20 32.89 15.07 32.89 15.07 32.89 15.07 32.89 15.07 28 15.07 28ZM 30 58.89C 30 58.89 25.07 58.89 25.07 58.89 25.07 58.89 25.07 21 25.07 21 25.07 21 30 21 30 21 30 21 30 6 30 6 30 6 11.07 6 11.07 6 11.07 6 11.07 58.89 11.07 58.89 11.07 58.89 6.07 58.89 6.07 58.89 6.07 58.89 6.07-0 6.07-0 6.07-0 35-0 35-0 35-0 35 21 35 21 35 21 60 21 60 21 60 21 60 58.89 60 58.89 60 58.89 35 58.89 35 58.89 35 58.89 30 58.89 30 58.89ZM 35 26C 35 26 30.07 26 30.07 26 30.07 26 30.07 30.89 30.07 30.89 30.07 30.89 35 30.89 35 30.89 35 30.89 35 26 35 26ZM 35 35C 35 35 30.07 35 30.07 35 30.07 35 30.07 39.89 30.07 39.89 30.07 39.89 35 39.89 35 39.89 35 39.89 35 35 35 35ZM 35 44C 35 44 30.07 44 30.07 44 30.07 44 30.07 48.89 30.07 48.89 30.07 48.89 35 48.89 35 48.89 35 48.89 35 44 35 44ZM 50.07 48.89C 50.07 48.89 55 48.89 55 48.89 55 48.89 55 44 55 44 55 44 50.07 44 50.07 44 50.07 44 50.07 48.89 50.07 48.89ZM 50.07 39.89C 50.07 39.89 55 39.89 55 39.89 55 39.89 55 35 55 35 55 35 50.07 35 50.07 35 50.07 35 50.07 39.89 50.07 39.89ZM 50.07 30.89C 50.07 30.89 55 30.89 55 30.89 55 30.89 55 26 55 26 55 26 50.07 26 50.07 26 50.07 26 50.07 30.89 50.07 30.89ZM 40.07 48.89C 40.07 48.89 45 48.89 45 48.89 45 48.89 45 44 45 44 45 44 40.07 44 40.07 44 40.07 44 40.07 48.89 40.07 48.89ZM 40.07 39.89C 40.07 39.89 45 39.89 45 39.89 45 39.89 45 35 45 35 45 35 40.07 35 40.07 35 40.07 35 40.07 39.89 40.07 39.89ZM 40.07 30.89C 40.07 30.89 45 30.89 45 30.89 45 30.89 45 26 45 26 45 26 40.07 26 40.07 26 40.07 26 40.07 30.89 40.07 30.89Z" fill="rgb(253,169,63)"/></svg>