<svg xmlns="http://www.w3.org/2000/svg" width="22.688" height="23.969" viewBox="0 0 22.688 23.969">
  <defs>
    <style>
      .cls-1 {
        fill: #dcdcdc;
        fill-rule: evenodd;
      }
    </style>
  </defs>
  <path class="cls-1" d="M513.655,555.047h6.69a3.345,3.345,0,0,1,3.345,3.345v14.215a3.345,3.345,0,0,1-3.345,3.345h-6.69a3.345,3.345,0,0,1-3.345-3.345V558.392A3.345,3.345,0,0,1,513.655,555.047Zm-0.018,1.672h6.69A1.673,1.673,0,0,1,522,558.392v14.215a1.673,1.673,0,0,1-1.673,1.673h-6.69a1.673,1.673,0,0,1-1.672-1.673V558.392A1.673,1.673,0,0,1,513.637,556.719Zm-2.478,2.5v-0.836H522.84v0.836H511.159Zm0,10.871v-0.837H522.84v0.837H511.159ZM517,570.151a1.673,1.673,0,1,1-1.673,1.672A1.673,1.673,0,0,1,517,570.151ZM532,553h1v23.968h-1V553Z" transform="translate(-510.312 -553)"/>
</svg>
