<?xml version="1.0" encoding="utf-8"?>
<svg xmlns="http://www.w3.org/2000/svg"
	xmlns:xlink="http://www.w3.org/1999/xlink"
	width="41px" height="40px" viewBox="0 0 41 40">
<path fillRule="evenodd" d="M 30.1 20.3C 24.59 20.3 20.13 15.84 20.13 10.34 20.13 4.83 24.59 0.37 30.1 0.37 35.6 0.37 40.06 4.83 40.06 10.34 40.06 15.84 35.6 20.3 30.1 20.3ZM 33.54 10.75C 33.41 10.44 33.23 10.18 33.01 9.96 32.79 9.75 32.54 9.56 32.26 9.42 31.98 9.27 31.69 9.14 31.4 9.03 31.11 8.91 30.82 8.81 30.54 8.7 30.25 8.6 30 8.49 29.78 8.37 29.56 8.24 29.38 8.09 29.24 7.92 29.11 7.75 29.04 7.54 29.04 7.29 29.04 7.13 29.07 6.98 29.13 6.84 29.19 6.71 29.28 6.59 29.41 6.5 29.53 6.4 29.69 6.33 29.89 6.27 30.09 6.22 30.33 6.19 30.61 6.19 30.91 6.19 31.19 6.23 31.45 6.3 31.7 6.37 31.93 6.44 32.12 6.52 32.32 6.6 32.48 6.68 32.62 6.75 32.75 6.82 32.85 6.85 32.92 6.85 32.96 6.85 32.99 6.84 33.02 6.82 33.05 6.8 33.07 6.77 33.09 6.71 33.11 6.65 33.13 6.57 33.14 6.47 33.15 6.36 33.15 6.22 33.15 6.05 33.15 5.93 33.15 5.82 33.14 5.73 33.14 5.63 33.13 5.55 33.11 5.49 33.1 5.42 33.08 5.36 33.06 5.32 33.03 5.27 33 5.23 32.95 5.18 32.91 5.14 32.82 5.08 32.71 5.03 32.59 4.97 32.46 4.92 32.31 4.87 32.17 4.82 32.01 4.77 31.85 4.73 31.68 4.7 31.52 4.67 31.37 4.65 31.37 4.65 31.53 3.12 31.53 3.12 31.53 3.06 31.52 3.01 31.51 2.96 31.49 2.91 31.45 2.88 31.39 2.85 31.34 2.82 31.25 2.79 31.14 2.78 31.03 2.76 30.89 2.75 30.73 2.75 30.59 2.75 30.47 2.76 30.39 2.77 30.3 2.78 30.23 2.8 30.18 2.82 30.13 2.85 30.1 2.87 30.08 2.9 30.06 2.93 30.05 2.97 30.04 3.01 30.04 3.01 29.88 4.63 29.88 4.63 29.41 4.68 29 4.79 28.63 4.94 28.26 5.09 27.95 5.29 27.7 5.54 27.45 5.79 27.25 6.07 27.12 6.4 26.98 6.74 26.92 7.1 26.92 7.5 26.92 7.95 26.98 8.33 27.11 8.64 27.25 8.96 27.42 9.22 27.64 9.44 27.86 9.66 28.11 9.85 28.39 10 28.66 10.15 28.95 10.28 29.24 10.39 29.53 10.51 29.81 10.61 30.09 10.71 30.36 10.81 30.61 10.93 30.83 11.05 31.05 11.18 31.23 11.32 31.36 11.49 31.49 11.66 31.56 11.87 31.56 12.13 31.56 12.51 31.4 12.82 31.1 13.06 30.79 13.29 30.32 13.41 29.7 13.41 29.29 13.41 28.94 13.37 28.64 13.29 28.35 13.21 28.09 13.12 27.88 13.02 27.67 12.92 27.5 12.83 27.37 12.75 27.23 12.67 27.13 12.63 27.06 12.63 27.01 12.63 26.96 12.65 26.92 12.67 26.88 12.69 26.85 12.74 26.82 12.8 26.79 12.87 26.77 12.96 26.76 13.08 26.75 13.19 26.75 13.34 26.75 13.53 26.75 13.76 26.76 13.94 26.79 14.06 26.82 14.18 26.86 14.28 26.92 14.34 26.98 14.4 27.07 14.46 27.19 14.53 27.32 14.59 27.46 14.65 27.63 14.72 27.79 14.78 27.98 14.83 28.18 14.88 28.39 14.94 28.6 14.98 28.83 15.01 28.83 15.01 28.66 16.64 28.66 16.64 28.65 16.7 28.66 16.76 28.68 16.8 28.7 16.85 28.73 16.89 28.79 16.92 28.85 16.95 28.93 16.97 29.04 16.99 29.14 17.01 29.28 17.01 29.45 17.01 29.59 17.01 29.7 17.01 29.79 16.99 29.88 16.98 29.95 16.96 30 16.94 30.05 16.92 30.08 16.89 30.1 16.86 30.12 16.83 30.13 16.79 30.14 16.75 30.14 16.75 30.31 15.02 30.31 15.02 30.82 14.98 31.29 14.88 31.72 14.72 32.14 14.56 32.5 14.34 32.8 14.07 33.1 13.81 33.34 13.49 33.5 13.12 33.66 12.75 33.75 12.33 33.75 11.87 33.75 11.43 33.68 11.06 33.54 10.75ZM 26.55 24.2C 28.61 24.2 29.52 25.11 29.52 26.49 29.52 27.86 28.61 28.78 27.46 28.78 26.32 28.78 23.34 29 20.59 29 17.84 29 17.15 29.46 17.38 31.52 17.61 33.59 21.45 34.33 23.34 33.82 25.86 33.13 33.19 30.38 35.25 29.92 37.31 29.46 38.91 29.23 39.37 30.61 39.83 31.98 39.83 32.67 38 33.36 36.69 33.85 27.03 37.94 24.77 38.8 22.54 39.65 20.3 40 18.53 40 13.26 40 13.26 38.17 12.34 38.17 11.43 38.17 8.91 38.4 8.91 38.4 8.91 38.4 8.91 24.2 8.91 24.2 8.91 24.2 12.57 22.13 14.86 22.36 17.15 22.59 19.22 23.51 20.13 23.74 21.05 23.97 24.48 24.2 26.55 24.2ZM 5.02 40C 5.02 40 1.35 40 1.35 40 0.97 40 0.66 39.69 0.66 39.31 0.66 39.31 0.66 20.99 0.66 20.99 0.66 20.61 0.97 20.3 1.35 20.3 1.35 20.3 5.02 20.3 5.02 20.3 5.39 20.3 5.7 20.61 5.7 20.99 5.7 20.99 5.7 39.31 5.7 39.31 5.7 39.69 5.39 40 5.02 40Z" fill="rgb(255,155,0)"/></svg>